HIERARCHY
ROOT Hips
{
    OFFSET 0.000000 0.000000 0.000000
    CHANNELS 6 Xposition Yposition Zposition Zrotation Xrotation Yrotation
    JOINT Spine
    {
        OFFSET -0.000000 7.546388 0.000000
        CHANNELS 3 Zrotation Xrotation Yrotation
        JOINT Spine1
        {
            OFFSET -0.000000 23.085974 0.000000
            CHANNELS 3 Zrotation Xrotation Yrotation
            JOINT Neck
            {
                OFFSET -0.000000 22.991167 2.090106
                CHANNELS 3 Zrotation Xrotation Yrotation
                JOINT Head
                {
                    OFFSET -0.000000 12.884076 -1.840582
                    CHANNELS 3 Zrotation Xrotation Yrotation
                    End Site
                    {
                        OFFSET -0.000000 23.007280 0.000000
                    }
                }
            }
            JOINT LeftShoulder
            {
                OFFSET 3.643021 20.585043 -0.013032
                CHANNELS 3 Zrotation Xrotation Yrotation
                JOINT LeftArm
                {
                    OFFSET 12.409293 0.000000 0.000000
                    CHANNELS 3 Zrotation Xrotation Yrotation
                    JOINT LeftForeArm
                    {
                        OFFSET 33.480854 0.000000 0.000000
                        CHANNELS 3 Zrotation Xrotation Yrotation
                        JOINT LeftHand
                        {
                            OFFSET 17.906601 0.000000 0.000000
                            CHANNELS 3 Zrotation Xrotation Yrotation
                            End Site
                            {
                                OFFSET 13.804369 0.000000 0.000000
                            }
                        }
                    }
                }
            }
            JOINT RightShoulder
            {
                OFFSET -3.660726 20.585043 -0.013032
                CHANNELS 3 Zrotation Xrotation Yrotation
                JOINT RightArm
                {
                    OFFSET -12.409293 0.000000 0.000000
                    CHANNELS 3 Zrotation Xrotation Yrotation
                    JOINT RightForeArm
                    {
                        OFFSET -33.480854 0.000000 0.000000
                        CHANNELS 3 Zrotation Xrotation Yrotation
                        JOINT RightHand
                        {
                            OFFSET -17.906601 0.000000 0.000000
                            CHANNELS 3 Zrotation Xrotation Yrotation
                            End Site
                            {
                                OFFSET -13.804369 0.000000 0.000000
                            }
                        }
                    }
                }
            }
        }
    }
    JOINT LeftUpLeg
    {
        OFFSET 9.202911 0.000000 0.000000
        CHANNELS 3 Zrotation Xrotation Yrotation
        JOINT LeftLeg
        {
            OFFSET -0.000000 -33.260441 0.000000
            CHANNELS 3 Zrotation Xrotation Yrotation
            JOINT LeftFoot
            {
                OFFSET -0.000000 -40.386738 0.000000
                CHANNELS 3 Zrotation Xrotation Yrotation
                JOINT LeftToeBase
                {
                    OFFSET -0.000000 -5.981893 13.804369
                    CHANNELS 3 Zrotation Xrotation Yrotation
                    End Site
                    {
                        OFFSET -0.000000 0.000000 3.681165
                    }
                }
            }
        }
    }
    JOINT RightUpLeg
    {
        OFFSET -9.202911 0.000000 0.000000
        CHANNELS 3 Zrotation Xrotation Yrotation
        JOINT RightLeg
        {
            OFFSET -0.000000 -33.260441 0.000000
            CHANNELS 3 Zrotation Xrotation Yrotation
            JOINT RightFoot
            {
                OFFSET -0.000000 -40.386738 0.000000
                CHANNELS 3 Zrotation Xrotation Yrotation
                JOINT RightToeBase
                {
                    OFFSET -0.000000 -5.981893 13.804369
                    CHANNELS 3 Zrotation Xrotation Yrotation
                    End Site
                    {
                        OFFSET -0.000000 0.000000 3.681165
                    }
                }
            }
        }
    }
}
MOTION
Frames:    6
Frame Time:    0.010000
15.418217    72.325966    -9.210946    -1.242863    -1.279576    -41.753315    3.256951    0.239035    1.902891    -3.281731    6.165443    2.086482    7.825682    -1.755638    21.579414    -13.387535    6.449598    20.115429    10.798323    -5.497155    -13.262118    -47.217587    4.437620    -28.184601    63.479652    -46.874237    -67.909317    -0.445812    -2.481143    27.259197    -7.874665    -1.662350    -4.912051    24.531399    50.384781    81.294464    -13.393829    -43.849033    129.737473    -2.461369    -18.633032    -27.882093    29.377638    -36.034988    23.754721    -2.178194    53.865005    8.111258    -10.959502    6.445355    -6.618438    0.000000    0.000000    0.000000    -22.108971    -1.196821    -9.507773    11.737924    45.460873    -4.140694    29.436171    -24.271959    -19.148310    0.000000    0.000000    0.000000    
15.268466    72.312225    -9.294523    -1.018946    -0.665803    -39.033695    1.816078    -0.827657    0.964159    -0.914335    6.847023    1.005772    7.838841    -2.042815    21.542475    -14.021601    6.172848    19.969845    10.911595    -5.430112    -13.807045    -47.417595    4.322374    -29.071678    63.093124    -46.277706    -67.220947    1.080666    -2.410681    27.507893    -8.535745    -2.170717    -5.369499    25.794861    50.732262    79.557594    -12.845794    -43.387062    130.636993    -2.874940    -18.541170    -28.210447    28.399069    -38.343067    21.606750    -3.001419    52.216499    10.856009    -9.349884    9.934317    -8.462325    0.000000    0.000000    0.000000    -20.895700    -0.755465    -10.957071    10.888832    45.634869    -5.571897    31.002439    -23.919859    -18.559149    0.000000    0.000000    0.000000    
14.973669    72.262978    -9.391054    -1.054406    -0.039323    -34.862350    -0.119926    -1.942274    -0.499752    1.786958    7.892508    -0.621058    8.528828    -2.432876    21.366293    -14.690549    5.630876    19.512861    11.446079    -4.829238    -13.621496    -47.232632    4.593879    -32.439434    64.361542    -45.421371    -64.788177    0.427759    -2.539791    28.847748    -8.933672    -2.849586    -5.616796    27.701895    51.492882    76.539497    -12.639481    -44.482212    131.715683    -2.317070    -19.855946    -28.574944    26.752111    -41.310284    18.587740    -2.501448    52.224632    10.182902    -9.042086    11.643847    -8.939026    0.000000    0.000000    0.000000    -19.275732    0.450953    -12.127473    11.420929    45.424534    -8.514557    32.375397    -23.833157    -18.642740    0.000000    0.000000    0.000000    
14.693639    72.124916    -9.514323    -1.044821    0.351230    -30.074167    -2.874937    -2.775842    -1.987566    5.056970    9.161654    -2.323359    8.998888    -3.112658    20.919413    -14.414947    4.770550    18.821541    11.734719    -5.003707    -12.744599    -46.142105    6.357232    -37.643513    67.735733    -44.284512    -59.923119    -2.143884    -3.322886    31.396158    -9.787456    -3.506888    -5.943646    31.041058    51.803829    71.901634    -11.679738    -44.833900    133.800049    -3.269198    -20.898554    -29.548431    24.241314    -44.475624    14.851327    -2.058645    52.564587    9.690642    -8.744535    13.450706    -9.621140    0.000000    0.000000    0.000000    -17.773785    1.828403    -12.913369    12.524111    45.518105    -8.976462    32.893688    -25.451878    -20.953526    0.000000    0.000000    0.000000    
14.301700    71.887054    -9.655729    -1.014655    0.693384    -24.653610    -5.663797    -2.875627    -3.610589    8.092604    9.114668    -4.114431    8.614181    -2.833347    20.067827    -12.485741    3.145742    18.022636    11.085957    -5.627064    -11.994446    -43.561127    9.212762    -42.981232    71.932266    -42.632622    -53.582054    -4.843698    -4.646776    33.728722    -10.613411    -3.605209    -5.759109    36.033813    52.032764    65.790749    -10.328861    -44.795589    136.034454    -4.314208    -22.331120    -30.893553    21.139395    -47.869911    11.136488    0.025602    54.778721    4.820981    -9.719800    12.586645    -8.472013    0.000000    0.000000    0.000000    -15.977580    3.336250    -13.891960    13.476170    45.295227    -12.573637    34.575745    -25.542658    -20.420244    0.000000    0.000000    0.000000    
13.880420    71.555527    -9.768812    -0.842978    0.909119    -18.531534    -9.042078    -2.715222    -5.260876    11.922533    9.097779    -5.998099    6.496655    -2.971923    18.645599    -8.434867    1.385677    17.210211    9.513165    -6.107185    -10.195117    -39.120724    12.856273    -50.845093    77.443787    -40.234772    -45.040588    -7.588230    -6.693295    33.545063    -12.869988    -3.642045    -5.155340    43.841743    51.378170    57.678436    -8.216446    -43.324799    138.993408    -6.389988    -23.300915    -33.175182    16.756088    -51.331085    6.767866    1.462289    55.656425    2.409491    -9.041467    14.484282    -9.241828    0.000000    0.000000    0.000000    -14.187733    5.102891    -15.066755    14.611417    44.985359    -15.703876    36.923328    -26.604034    -19.417263    0.000000    0.000000    0.000000    
